<?xml version="1.0"?>
<svg xmlns="http://www.w3.org/2000/svg" xmlns:xlink="http://www.w3.org/1999/xlink" version="1.1" viewBox="0 0 192 192" width="52px" height="52px"><g fill="none" fill-rule="nonzero" stroke="none" stroke-width="1" stroke-linecap="butt" stroke-linejoin="miter" stroke-miterlimit="10" stroke-dasharray="" stroke-dashoffset="0" font-family="none" font-weight="none" font-size="none" text-anchor="none" style="mix-blend-mode: normal"><path d="M0,192v-192h192v192z" fill="none"/><g fill="#24457b"><g id="surface1"><path d="M148.38462,1.84615c-4.38462,-0.02884 -8.68269,1.52884 -12,4.84615l-7.38462,7.61538l48.69231,48.92308l7.38462,-7.61538c6.66346,-6.66346 6.72115,-17.48077 0,-24.23077l-24.46154,-24.46154c-3.375,-3.375 -7.84615,-5.04808 -12.23077,-5.07692zM120.69231,21l-11.53846,11.07692l50.76923,50.76923l11.76923,-10.84615zM101.76923,40.15385l-79.84615,79.15385c-1.84615,0.95192 -3.17307,2.625 -3.69231,4.61538l-17.07692,57.92308c-0.77885,2.53846 -0.08654,5.33654 1.78847,7.21154c1.875,1.875 4.67307,2.56731 7.21153,1.78846l57.92308,-17.07692c2.68269,-0.40384 4.90385,-2.27885 5.76923,-4.84615l78.69231,-78l-10.84615,-10.84615l-80.76923,81l-32.53846,9.46154l-6.92308,-6.92308l9.92308,-33.92308l80.07692,-79.84615zM119.30769,57.92308l-81,81.23077l11.76923,2.53846l1.61538,10.84615l81.23077,-81z"/></g></g></g></svg>
